# xmcd CD database file
#
# Track frame offsets:
#	150
#	17438
#	35217
#	52323
#
# Disc length: 1034 seconds
#
# Revision: 0
# Processed by: cddbd v1.5.2PL0 Copyright (c) Steve Scherf et al.
# Submitted via: CDex 1.51
#
DISCID=32040804
DTITLE=Til Brönner - This guy_s in love with U
DYEAR=2006
DGENRE=Jazz
TTITLE0=this guy_Radio edit
TTITLE1=this guy_single edit
TTITLE2=i'll never fall in love again
TTITLE3=a distant episode
EXTD=YEAR: 2006
EXTT0=
EXTT1=
EXTT2=
EXTT3=
PLAYORDER=
